<?xml version="1.0" encoding="UTF-8"?>
<svg version="1.1" xmlns="http://www.w3.org/2000/svg" width="500" height="500">
<path d="M0 0 C2.71138439 2.7623024 4.47208727 6.00340323 6.3046875 9.390625 C7.9566456 12.19135857 9.38939535 14.20156723 12.48242188 15.3996582 C13.15080078 15.55523193 13.81917969 15.71080566 14.5078125 15.87109375 C15.25434082 16.05583252 16.00086914 16.24057129 16.77001953 16.4309082 C17.56005371 16.62128662 18.35008789 16.81166504 19.1640625 17.0078125 C30.88356823 20.07242942 42.38198719 24.73496032 48.84765625 35.703125 C50.22820369 39.07192497 50.38191075 42.18230293 49.6640625 45.6953125 C47.43882442 50.13786967 44.62948235 53.038827 40.5390625 55.8203125 C31.95279928 57.75914613 24.09109873 54.9801411 16.6640625 50.6953125 C14.6840625 53.3353125 12.7040625 55.9753125 10.6640625 58.6953125 C5.79059918 56.25858084 3.36488394 53.10997885 -0.1171875 49.0078125 C-2.19873291 46.83831446 -3.66436693 45.9231697 -6.3359375 44.6953125 C-6.60148437 45.98308594 -6.86703125 47.27085937 -7.140625 48.59765625 C-8.25402386 53.60795111 -9.79265576 58.40862035 -11.4609375 63.2578125 C-11.73808594 64.07572266 -12.01523437 64.89363281 -12.30078125 65.73632812 C-12.97498887 67.72407818 -13.65485954 69.70990599 -14.3359375 71.6953125 C-16.9759375 71.6953125 -19.6159375 71.6953125 -22.3359375 71.6953125 C-24.67799669 66.45356098 -26.58786621 61.16268441 -28.3359375 55.6953125 C-28.68527344 56.76652344 -29.03460938 57.83773437 -29.39453125 58.94140625 C-29.85400895 60.33859354 -30.31365296 61.73572615 -30.7734375 63.1328125 C-31.00353516 63.83986328 -31.23363281 64.54691406 -31.47070312 65.27539062 C-33.22265625 70.58203125 -33.22265625 70.58203125 -34.3359375 71.6953125 C-36.9759375 71.6953125 -39.6159375 71.6953125 -42.3359375 71.6953125 C-45.3059375 62.4553125 -48.2759375 53.2153125 -51.3359375 43.6953125 C-48.6959375 43.6953125 -46.0559375 43.6953125 -43.3359375 43.6953125 C-42.81193359 45.30212891 -42.81193359 45.30212891 -42.27734375 46.94140625 C-41.81786605 48.33859354 -41.35822204 49.73572615 -40.8984375 51.1328125 C-40.66833984 51.83986328 -40.43824219 52.54691406 -40.20117188 53.27539062 C-39.26172603 56.75838045 -39.26172603 56.75838045 -37.3359375 59.6953125 C-36.98660156 58.62410156 -36.63726562 57.55289063 -36.27734375 56.44921875 C-35.81786605 55.05203146 -35.35822204 53.65489885 -34.8984375 52.2578125 C-34.66833984 51.55076172 -34.43824219 50.84371094 -34.20117188 50.11523438 C-32.44921875 44.80859375 -32.44921875 44.80859375 -31.3359375 43.6953125 C-29.00296317 43.65438313 -26.66888525 43.65289527 -24.3359375 43.6953125 C-23.98660156 44.76652344 -23.63726562 45.83773437 -23.27734375 46.94140625 C-22.81786605 48.33859354 -22.35822204 49.73572615 -21.8984375 51.1328125 C-21.55329102 52.19338867 -21.55329102 52.19338867 -21.20117188 53.27539062 C-20.26172603 56.75838045 -20.26172603 56.75838045 -18.3359375 59.6953125 C-18.04460937 58.63570312 -17.75328125 57.57609375 -17.453125 56.484375 C-17.04035567 55.09596906 -16.62622138 53.7079684 -16.2109375 52.3203125 C-15.92863281 51.27230469 -15.92863281 51.27230469 -15.640625 50.203125 C-15.015625 48.171875 -15.015625 48.171875 -13.3359375 44.6953125 C-10.15625 43.21875 -10.15625 43.21875 -7.3359375 42.6953125 C-18.01442931 35.63645145 -18.01442931 35.63645145 -29.3359375 29.6953125 C-28.17302945 26.20658835 -27.19626141 25.59554386 -24.2734375 23.5078125 C-23.53996094 22.97800781 -22.80648438 22.44820312 -22.05078125 21.90234375 C-21.48488281 21.50402344 -20.91898437 21.10570312 -20.3359375 20.6953125 C-21.47998251 18.37240371 -22.66413583 16.12727694 -23.9609375 13.8828125 C-25.57376268 10.14399048 -25.77627935 7.73177943 -25.3359375 3.6953125 C-23.67022048 0.03073506 -21.81017897 -2.26101605 -18.3359375 -4.3046875 C-11.89057002 -6.63218131 -5.20048255 -3.96566478 0 0 Z M-21.3359375 0.6953125 C-23.84364938 4.45688031 -23.47102712 6.14940967 -22.88671875 10.46484375 C-22.10873116 13.61541762 -20.67937462 15.49390187 -18.3359375 17.6953125 C-17.6759375 17.6953125 -17.0159375 17.6953125 -16.3359375 17.6953125 C-16.0059375 16.7053125 -15.6759375 15.7153125 -15.3359375 14.6953125 C-15.62125016 18.16155781 -16.09371221 19.45805594 -18.62109375 21.93359375 C-19.53761719 22.61808594 -20.45414062 23.30257812 -21.3984375 24.0078125 C-22.31753906 24.70519531 -23.23664063 25.40257812 -24.18359375 26.12109375 C-25.24900391 26.90033203 -25.24900391 26.90033203 -26.3359375 27.6953125 C-23.93530064 30.39801625 -21.42069853 31.81757044 -18.2109375 33.4453125 C-12.75208993 36.34803303 -8.09630194 39.77671982 -3.3359375 43.6953125 C-2.0365625 44.654375 -2.0365625 44.654375 -0.7109375 45.6328125 C2.77982147 48.66426108 5.69024224 52.16443657 8.6640625 55.6953125 C12.32567828 54.47477391 12.82676724 53.32748946 14.8515625 50.1328125 C15.38136719 49.30652344 15.91117188 48.48023438 16.45703125 47.62890625 C16.85535156 46.99082031 17.25367188 46.35273438 17.6640625 45.6953125 C17.04917969 44.98955078 17.04917969 44.98955078 16.421875 44.26953125 C15.88304687 43.64691406 15.34421875 43.02429688 14.7890625 42.3828125 C14.25539063 41.76792969 13.72171875 41.15304688 13.171875 40.51953125 C11.6640625 38.6953125 11.6640625 38.6953125 9.6640625 35.6953125 C7.65122542 34.64960727 7.65122542 34.64960727 5.3515625 33.8203125 C1.10916213 32.05492654 -1.35333275 30.15898254 -4.3359375 26.6953125 C-3.7996875 27.1284375 -3.2634375 27.5615625 -2.7109375 28.0078125 C0.92682178 30.5925362 4.1350291 32.6953125 8.6640625 32.6953125 C10.171875 34.26953125 10.171875 34.26953125 11.7890625 36.3828125 C16.42220672 41.93078137 21.6841584 44.95033647 28.6640625 46.6953125 C25.3640625 46.6953125 22.0640625 46.6953125 18.6640625 46.6953125 C19.78583162 50.06061987 20.11894323 50.31648729 23.1015625 51.8828125 C27.93031412 54.12813866 32.41982603 54.56641889 37.6640625 53.6953125 C42.01868028 51.51800361 45.1371402 48.87445322 47.6640625 44.6953125 C48.41279005 41.08780701 48.40610749 38.89728314 46.44140625 35.71484375 C36.81259687 23.94629895 25.1444769 19.99593909 10.6640625 17.6953125 C11.9840625 19.3453125 13.3040625 20.9953125 14.6640625 22.6953125 C11.48350129 21.35330355 10.01189774 20.17667278 8.2890625 17.1953125 C7.65871094 16.13570312 7.65871094 16.13570312 7.015625 15.0546875 C6.06834231 13.40104952 5.12605358 11.74454542 4.1875 10.0859375 C0.87390494 4.34237273 -1.760866 -0.112997 -8.3359375 -2.3046875 C-13.69074587 -2.65015901 -16.9743418 -2.76830761 -21.3359375 0.6953125 Z " fill="#50BF4D" transform="translate(377.3359375,171.3046875)"/>
<path d="M0 0 C-1.37991654 15.32433626 -3.48781111 31.29711023 -15.3125 42.4375 C-23.41086858 48.6480136 -31.19773603 48.25747745 -41 47 C-39.59367841 44.18735683 -37.43438889 43.69890585 -34.67797852 42.4362793 C-26.83564276 38.83993409 -20.32994315 35.01891215 -15 28 C-14.505 26.515 -14.505 26.515 -14 25 C-14.90878906 25.87011719 -14.90878906 25.87011719 -15.8359375 26.7578125 C-24.03073992 34.39788983 -32.03141046 39.42538731 -42.4375 43.4375 C-43.48574951 43.84488403 -43.48574951 43.84488403 -44.55517578 44.26049805 C-49.62930084 46.12356639 -49.62930084 46.12356639 -53 45 C-52.36384766 44.12601562 -52.36384766 44.12601562 -51.71484375 43.234375 C-48.36341501 38.54974054 -45.30061601 33.84852833 -42.5 28.8125 C-36.99407505 19.29894384 -30.75043388 14.83424873 -21 10 C-19.61308805 9.30637575 -18.22638146 8.61234078 -16.83984375 7.91796875 C-14.69441954 6.84417249 -12.54782882 5.77351228 -10.39477539 4.71508789 C-0.83430965 0 -0.83430965 0 0 0 Z " fill="#89CF38" transform="translate(129,222)"/>
<path d="M0 0 C0.33 0 0.66 0 1 0 C1.15855469 0.75023437 1.31710938 1.50046875 1.48046875 2.2734375 C4.56162695 15.78967844 9.74453418 26.17962008 21.625 33.8125 C23.40869055 34.88833628 25.20015315 35.95141666 27 37 C28.66727426 37.99898664 30.33412983 38.99867371 32 40 C31.34 40.66 30.68 41.32 30 42 C35.20639441 43.06494431 40.21311968 43.14966663 45.5 43.125 C46.32886719 43.12886719 47.15773437 43.13273437 48.01171875 43.13671875 C52.45452576 43.12965546 56.62702514 42.89447213 61 42 C60.34 41.34 59.68 40.68 59 40 C60.28583984 39.23816406 60.28583984 39.23816406 61.59765625 38.4609375 C76.08733327 29.78704692 84.02863043 21.59672611 89 5 C89.35628795 3.33808912 89.69674592 1.67240122 90 0 C90.33 0 90.66 0 91 0 C91.84142926 12.08385903 88.43703644 21.49286063 81 31 C78.3125 33.875 78.3125 33.875 76 36 C75.443125 36.598125 74.88625 37.19625 74.3125 37.8125 C73 39 73 39 71 39 C71.495 41.475 71.495 41.475 72 44 C65.75375146 50.24624854 56.94233095 50.24659178 48.54980469 50.32885742 C47.10202637 50.3207605 47.10202637 50.3207605 45.625 50.3125 C44.61856445 50.30903564 43.61212891 50.30557129 42.57519531 50.30200195 C25.86343234 50.05751205 25.86343234 50.05751205 20.18359375 45.5625 C19 44 19 44 19.3125 41.3125 C19.539375 40.549375 19.76625 39.78625 20 39 C19.443125 38.773125 18.88625 38.54625 18.3125 38.3125 C9.32149429 33.20949676 3.42431078 22.68223156 0.3984375 13.09375 C-0.10529675 10.44667588 -0.09455501 7.94262083 -0.0625 5.25 C-0.05347656 4.26515625 -0.04445312 3.2803125 -0.03515625 2.265625 C-0.02355469 1.51796875 -0.01195312 0.7703125 0 0 Z " fill="#504D4E" transform="translate(50,236)"/>
<path d="M0 0 C2.71138439 2.7623024 4.47208727 6.00340323 6.3046875 9.390625 C7.9566456 12.19135857 9.38939535 14.20156723 12.48242188 15.3996582 C13.15080078 15.55523193 13.81917969 15.71080566 14.5078125 15.87109375 C15.62760498 16.1482019 15.62760498 16.1482019 16.77001953 16.4309082 C17.56005371 16.62128662 18.35008789 16.81166504 19.1640625 17.0078125 C30.88356823 20.07242942 42.38198719 24.73496032 48.84765625 35.703125 C50.22820369 39.07192497 50.38191075 42.18230293 49.6640625 45.6953125 C47.43882442 50.13786967 44.62948235 53.038827 40.5390625 55.8203125 C31.95279928 57.75914613 24.09109873 54.9801411 16.6640625 50.6953125 C14.6840625 53.3353125 12.7040625 55.9753125 10.6640625 58.6953125 C5.79059918 56.25858084 3.36488394 53.10997885 -0.1171875 49.0078125 C-2.23958731 46.79573382 -3.65733451 46.01400936 -6.3359375 44.6953125 C-7.47869141 43.52548828 -7.47869141 43.52548828 -8.64453125 42.33203125 C-11.6722876 39.3657968 -14.70443304 37.51738226 -18.3984375 35.5078125 C-19.01009766 35.16556641 -19.62175781 34.82332031 -20.25195312 34.47070312 C-23.24413979 32.80478298 -26.25598851 31.19304331 -29.3359375 29.6953125 C-28.17302945 26.20658835 -27.19626141 25.59554386 -24.2734375 23.5078125 C-23.53996094 22.97800781 -22.80648438 22.44820312 -22.05078125 21.90234375 C-21.48488281 21.50402344 -20.91898437 21.10570312 -20.3359375 20.6953125 C-21.47998251 18.37240371 -22.66413583 16.12727694 -23.9609375 13.8828125 C-25.57376268 10.14399048 -25.77627935 7.73177943 -25.3359375 3.6953125 C-23.67022048 0.03073506 -21.81017897 -2.26101605 -18.3359375 -4.3046875 C-11.89057002 -6.63218131 -5.20048255 -3.96566478 0 0 Z M-21.3359375 0.6953125 C-23.84364938 4.45688031 -23.47102712 6.14940967 -22.88671875 10.46484375 C-22.10873116 13.61541762 -20.67937462 15.49390187 -18.3359375 17.6953125 C-17.6759375 17.6953125 -17.0159375 17.6953125 -16.3359375 17.6953125 C-16.0059375 16.7053125 -15.6759375 15.7153125 -15.3359375 14.6953125 C-15.62125016 18.16155781 -16.09371221 19.45805594 -18.62109375 21.93359375 C-19.53761719 22.61808594 -20.45414062 23.30257812 -21.3984375 24.0078125 C-22.31753906 24.70519531 -23.23664063 25.40257812 -24.18359375 26.12109375 C-25.24900391 26.90033203 -25.24900391 26.90033203 -26.3359375 27.6953125 C-23.93530064 30.39801625 -21.42069853 31.81757044 -18.2109375 33.4453125 C-12.75208993 36.34803303 -8.09630194 39.77671982 -3.3359375 43.6953125 C-2.0365625 44.654375 -2.0365625 44.654375 -0.7109375 45.6328125 C2.77982147 48.66426108 5.69024224 52.16443657 8.6640625 55.6953125 C12.32567828 54.47477391 12.82676724 53.32748946 14.8515625 50.1328125 C15.38136719 49.30652344 15.91117187 48.48023438 16.45703125 47.62890625 C16.85535156 46.99082031 17.25367188 46.35273438 17.6640625 45.6953125 C17.04917969 44.98955078 17.04917969 44.98955078 16.421875 44.26953125 C15.88304687 43.64691406 15.34421875 43.02429688 14.7890625 42.3828125 C14.25539063 41.76792969 13.72171875 41.15304688 13.171875 40.51953125 C11.6640625 38.6953125 11.6640625 38.6953125 9.6640625 35.6953125 C7.65122542 34.64960727 7.65122542 34.64960727 5.3515625 33.8203125 C1.10916213 32.05492654 -1.35333275 30.15898254 -4.3359375 26.6953125 C-3.7996875 27.1284375 -3.2634375 27.5615625 -2.7109375 28.0078125 C0.92682178 30.5925362 4.1350291 32.6953125 8.6640625 32.6953125 C10.171875 34.26953125 10.171875 34.26953125 11.7890625 36.3828125 C16.42220672 41.93078137 21.6841584 44.95033647 28.6640625 46.6953125 C25.3640625 46.6953125 22.0640625 46.6953125 18.6640625 46.6953125 C19.78583162 50.06061987 20.11894323 50.31648729 23.1015625 51.8828125 C27.93031412 54.12813866 32.41982603 54.56641889 37.6640625 53.6953125 C42.01868028 51.51800361 45.1371402 48.87445322 47.6640625 44.6953125 C48.41279005 41.08780701 48.40610749 38.89728314 46.44140625 35.71484375 C36.81259687 23.94629895 25.1444769 19.99593909 10.6640625 17.6953125 C11.9840625 19.3453125 13.3040625 20.9953125 14.6640625 22.6953125 C11.48350129 21.35330355 10.01189774 20.17667278 8.2890625 17.1953125 C7.65871094 16.13570312 7.65871094 16.13570312 7.015625 15.0546875 C6.06834231 13.40104952 5.12605358 11.74454542 4.1875 10.0859375 C0.87390494 4.34237273 -1.760866 -0.112997 -8.3359375 -2.3046875 C-13.69074587 -2.65015901 -16.9743418 -2.76830761 -21.3359375 0.6953125 Z " fill="#79CE77" transform="translate(377.3359375,171.3046875)"/>
<path d="M0 0 C6 0 6 0 8.44921875 2.046875 C9.18785156 2.93890625 9.92648438 3.8309375 10.6875 4.75 C11.43386719 5.63171875 12.18023437 6.5134375 12.94921875 7.421875 C14.67018487 9.58537526 16.34130027 11.78840036 18 14 C18.33 9.38 18.66 4.76 19 0 C21.31 0 23.62 0 26 0 C26 9.24 26 18.48 26 28 C20 28 20 28 18.21728516 26.71484375 C17.74597168 26.12832031 17.2746582 25.54179687 16.7890625 24.9375 C16.26699219 24.30585938 15.74492187 23.67421875 15.20703125 23.0234375 C14.68496094 22.35570312 14.16289062 21.68796875 13.625 21 C13.07972656 20.33226562 12.53445312 19.66453125 11.97265625 18.9765625 C10.63240234 17.33063665 9.31400427 15.66695687 8 14 C7.67 18.62 7.34 23.24 7 28 C4.69 28 2.38 28 0 28 C0 18.76 0 9.52 0 0 Z " fill="#4CBD49" transform="translate(194,215)"/>
<path d="M0 0 C3.01125 -0.0825 6.0225 -0.165 9.125 -0.25 C10.06230957 -0.28641602 10.99961914 -0.32283203 11.96533203 -0.36035156 C18.48607188 -0.44646144 21.98094142 1.18915236 26.8125 5.6875 C28.68427139 9.33252849 29.11343626 12.9233845 29 17 C27.17525555 22.37285867 24.05197929 25.47401035 19 28 C17.55151418 28.08342159 16.09929131 28.10732861 14.6484375 28.09765625 C13.88192871 28.09515869 13.11541992 28.09266113 12.32568359 28.09008789 C11.35195801 28.08098389 10.37823242 28.07187988 9.375 28.0625 C6.28125 28.041875 3.1875 28.02125 0 28 C0 18.76 0 9.52 0 0 Z M7 6 C7 11.28 7 16.56 7 22 C13.64694993 22.62359441 13.64694993 22.62359441 19.5625 20.3125 C21.2108717 17.66077162 21.92537583 16.13421516 22 13 C20.42042918 8.70200702 20.42042918 8.70200702 17 6 C15.29297265 5.93003986 13.58331997 5.91559846 11.875 5.9375 C10.26625 5.958125 8.6575 5.97875 7 6 Z " fill="#4FBE4C" transform="translate(151,215)"/>
<path d="M0 0 C4.13760924 2.28974492 6.34932369 4.93823284 7.8125 9.4375 C8.75842064 14.44299674 7.97886315 18.61435266 5.20703125 22.89453125 C1.69955207 26.77535555 -2.6240475 28.21414964 -7.6875 28.9375 C-13.54144355 28.10122235 -17.60327404 26.10093725 -21.6875 21.8125 C-23.7289163 17.21931333 -23.96112782 13.3854946 -23.1875 8.4375 C-20.99347617 3.50094639 -18.07692435 1.25114694 -13.26171875 -0.8671875 C-8.43541864 -2.48504328 -4.58014173 -1.95566126 0 0 Z M-14.1875 7.4375 C-16.52918764 10.95003146 -16.68373677 12.30219356 -16.1875 16.4375 C-14.2135809 19.85389845 -13.00211541 21.16018412 -9.25 22.4375 C-5.5618624 22.4375 -4.04241706 21.7372943 -1.1875 19.4375 C0.94522462 16.72312321 0.80995956 15.38923167 0.625 11.875 C-0.23714182 7.8675488 -0.23714182 7.8675488 -3.1875 5.4375 C-7.9403764 3.9909724 -10.27147375 4.39170181 -14.1875 7.4375 Z " fill="#53C04F" transform="translate(318.1875,215.5625)"/>
<path d="M0 0 C0.72058594 0.72703125 1.44117187 1.4540625 2.18359375 2.203125 C3.94128235 3.94862436 5.72181392 5.67176519 7.53515625 7.359375 C17.17908825 16.48161052 19.46836889 23.96098251 21 37 C14.46720582 34.03982764 9.18221366 28.75054379 5 23 C5.93018526 24.46300982 6.86944027 25.92025579 7.8125 27.375 C8.33457031 28.18710938 8.85664062 28.99921875 9.39453125 29.8359375 C10.98437197 32.23350241 10.98437197 32.23350241 14 34 C13.67 34.66 13.34 35.32 13 36 C6.42705031 34.36750269 2.68332708 32.80403055 -1 27 C-4.38079996 18.46750487 -3.36295825 9.6929267 -1 1 C-0.67 0.67 -0.34 0.34 0 0 Z " fill="#50BF4D" transform="translate(65,210)"/>
<path d="M0 0 C7.26 0 14.52 0 22 0 C22 1.65 22 3.3 22 5 C21 6 21 6 17.83984375 6.09765625 C15.90818359 6.08025391 15.90818359 6.08025391 13.9375 6.0625 C12.64714844 6.05347656 11.35679687 6.04445312 10.02734375 6.03515625 C9.02832031 6.02355469 8.02929688 6.01195312 7 6 C7 7.65 7 9.3 7 11 C11.29 11 15.58 11 20 11 C20 12.98 20 14.96 20 17 C15.71 17 11.42 17 7 17 C7 18.65 7 20.3 7 22 C7.99902344 21.98839844 8.99804688 21.97679687 10.02734375 21.96484375 C11.31769531 21.95582031 12.60804688 21.94679687 13.9375 21.9375 C15.22527344 21.92589844 16.51304687 21.91429687 17.83984375 21.90234375 C21 22 21 22 22 23 C22 24.65 22 26.3 22 28 C14.74 28 7.48 28 0 28 C0 18.76 0 9.52 0 0 Z " fill="#54C050" transform="translate(225,215)"/>
<path d="M0 0 C2.4375 0.5625 2.4375 0.5625 4.125 2.1875 C7.17965635 7.7149734 7.93049796 12.35072576 7.4375 18.5625 C6.0413245 21.48177604 4.71547004 23.28452996 2.4375 25.5625 C2.13413813 27.4484806 2.13413813 27.4484806 2.1640625 29.58984375 C2.1434375 30.38197266 2.1228125 31.17410156 2.1015625 31.99023438 C2.07558323 33.65940258 2.05731652 35.32870916 2.046875 36.99804688 C1.86764893 43.12658279 1.86764893 43.12658279 -0.6015625 45.62890625 C-1.24867187 45.93699219 -1.89578125 46.24507812 -2.5625 46.5625 C-2.52769531 45.24894531 -2.49289063 43.93539062 -2.45703125 42.58203125 C-2.42888534 40.84636699 -2.40158604 39.11068885 -2.375 37.375 C-2.34986328 36.51068359 -2.32472656 35.64636719 -2.29882812 34.75585938 C-2.24194563 29.80708189 -2.39983175 26.61225812 -5.5625 22.5625 C-8.40659415 18.4434671 -8.73890272 15.82879411 -8 11 C-6.84921865 5.84955175 -5.68476507 1.24787526 0 0 Z " fill="#5F5C5C" transform="translate(91.5625,197.4375)"/>
<path d="M0 0 C7.26 0 14.52 0 22 0 C22 1.65 22 3.3 22 5 C21 6 21 6 17.83984375 6.09765625 C15.90818359 6.08025391 15.90818359 6.08025391 13.9375 6.0625 C12.64714844 6.05347656 11.35679687 6.04445312 10.02734375 6.03515625 C9.02832031 6.02355469 8.02929688 6.01195312 7 6 C7 7.98 7 9.96 7 12 C11.29 12 15.58 12 20 12 C20 13.98 20 15.96 20 18 C15.71 18 11.42 18 7 18 C7 21.3 7 24.6 7 28 C4.69 28 2.38 28 0 28 C0 18.76 0 9.52 0 0 Z " fill="#52BF4F" transform="translate(250,215)"/>
<path d="M0 0 C4.95 0 9.9 0 15 0 C15.13587049 3.0223636 15.23450542 6.03853888 15.3125 9.0625 C15.3753418 10.33383789 15.3753418 10.33383789 15.43945312 11.63085938 C15.56499095 18.13371883 14.16071688 21.02743593 10 26 C8.70925629 28.75961037 8.70925629 28.75961037 8 31 C7.34 31 6.68 31 6 31 C5.609375 29.33984375 5.21875 27.6796875 4.828125 26.01953125 C4.06611429 23.80439228 4.06611429 23.80439228 1.9375 21.875 C-0.87582576 17.70038759 -0.44032573 14.09570768 -0.25 9.1875 C-0.23195313 8.30384766 -0.21390625 7.42019531 -0.1953125 6.50976562 C-0.14838513 4.33937457 -0.07664731 2.16954481 0 0 Z " fill="#737171" transform="translate(106,198)"/>
<path d="M0 0 C2.31 0 4.62 0 7 0 C7 7.26 7 14.52 7 22 C11.62 22 16.24 22 21 22 C21 23.98 21 25.96 21 28 C14.07 28 7.14 28 0 28 C0 18.76 0 9.52 0 0 Z " fill="#4FBE4B" transform="translate(274,215)"/>
<path d="M0 0 C2.64 0 5.28 0 8 0 C8 9.24 8 18.48 8 28 C5.36 28 2.72 28 0 28 C0 18.76 0 9.52 0 0 Z " fill="#63C660" transform="translate(182,215)"/>
<path d="M0 0 C3 2 3 2 3.73828125 4.50390625 C3.92777344 5.51324219 4.11726563 6.52257812 4.3125 7.5625 C5.94383431 14.73519211 8.75822184 20.83881456 15 25 C14.67 25.66 14.34 26.32 14 27 C7.42705031 25.36750269 3.68332708 23.80403055 0 18 C-2.03217991 12.87116499 -2.75992599 7.48711266 -2 2 C-1.34 1.34 -0.68 0.68 0 0 Z " fill="#66C763" transform="translate(64,219)"/>
<path d="M0 0 C2.31 0.33 4.62 0.66 7 1 C8.13888889 5.55555556 8.13888889 5.55555556 7.375 8 C6.74758164 10.20776022 6.74758164 10.20776022 8.4375 12.75 C8.953125 13.4925 9.46875 14.235 10 15 C8.1875 14.8125 8.1875 14.8125 6 14 C4.25 11.4375 4.25 11.4375 3 9 C3 10.98 3 12.96 3 15 C2.01 15 1.02 15 0 15 C0 10.05 0 5.1 0 0 Z " fill="#A7DB6A" transform="translate(305,257)"/>
<path d="M0 0 C2.64 0 5.28 0 8 0 C8 0.99 8 1.98 8 3 C6.35 2.67 4.7 2.34 3 2 C3 3.65 3 5.3 3 7 C4.65 6.67 6.3 6.34 8 6 C8 6.66 8 7.32 8 8 C6.35 8 4.7 8 3 8 C3 9.98 3 11.96 3 14 C4.65 14 6.3 14 8 14 C8.33 13.34 8.66 12.68 9 12 C9 12.99 9 13.98 9 15 C6.03 15 3.06 15 0 15 C0 10.05 0 5.1 0 0 Z " fill="#BBE48D" transform="translate(256,257)"/>
<path d="M0 0 C0.66 0 1.32 0 2 0 C2 2.31 2 4.62 2 7 C3.98 7 5.96 7 8 7 C8 4.69 8 2.38 8 0 C8.99 0 9.98 0 11 0 C11 4.95 11 9.9 11 15 C10.01 15 9.02 15 8 15 C8 12.69 8 10.38 8 8 C6.02 8 4.04 8 2 8 C2.33 10.31 2.66 12.62 3 15 C1.68 14.67 0.36 14.34 -1 14 C-0.67 9.38 -0.34 4.76 0 0 Z " fill="#A5DB68" transform="translate(338,257)"/>
<path d="M0 0 C0.4125 0.5775 0.825 1.155 1.25 1.75 C3.01957355 4.02516599 4.92852378 5.99995399 7 8 C7.33 6.68 7.66 5.36 8 4 C8.33 4 8.66 4 9 4 C9.33984375 6.17578125 9.33984375 6.17578125 9 9 C7.21930547 10.95671046 5.58570691 12.53032557 3.5625 14.1875 C-0.22233758 17.16865179 -0.22233758 17.16865179 -3 21 C-3.99 20.67 -4.98 20.34 -6 20 C-4.83709195 16.51127585 -3.86032391 15.90023136 -0.9375 13.8125 C-0.20402344 13.28269531 0.52945312 12.75289062 1.28515625 12.20703125 C2.13400391 11.60955078 2.13400391 11.60955078 3 11 C2.52433594 10.12601563 2.52433594 10.12601563 2.0390625 9.234375 C0.63951811 6.22482841 0.37817248 3.2774948 0 0 Z " fill="#83D181" transform="translate(354,181)"/>
<path d="M0 0 C0 0.66 0 1.32 0 2 C-1.98 2 -3.96 2 -6 2 C-6 2.66 -6 3.32 -6 4 C-5.030625 4.391875 -4.06125 4.78375 -3.0625 5.1875 C0 7 0 7 0.875 9.6875 C0.936875 10.8321875 0.936875 10.8321875 1 12 C-3.43076923 15.07692308 -3.43076923 15.07692308 -6.3125 14.6875 C-6.869375 14.460625 -7.42625 14.23375 -8 14 C-7.67 13.01 -7.34 12.02 -7 11 C-7 11.66 -7 12.32 -7 13 C-5.35 12.34 -3.7 11.68 -2 11 C-4.16687491 8.72478134 -6.45620509 6.84205838 -9 5 C-8.625 2.5625 -8.625 2.5625 -8 0 C-5.13822943 -1.43088528 -3.06624227 -0.59991697 0 0 Z " fill="#B4E080" transform="translate(335,258)"/>
<path d="M0 0 C0 0.33 0 0.66 0 1 C-0.73605469 1.03738281 -1.47210938 1.07476562 -2.23046875 1.11328125 C-9.63438588 1.48966551 -9.63438588 1.48966551 -16 5 C-17.14814997 7.29629994 -17.30769809 9.07698086 -17.5625 11.625 C-17.64628906 12.44226563 -17.73007812 13.25953125 -17.81640625 14.1015625 C-17.87699219 14.72804687 -17.93757813 15.35453125 -18 16 C-20 14 -20 14 -20.3125 10.6875 C-19.90796515 5.91398882 -18.59684518 3.49038883 -15.125 0.25 C-9.7244758 -2.92677894 -5.72364131 -1.64918478 0 0 Z " fill="#73CB70" transform="translate(372,168)"/>
<path d="M0 0 C2.64 0 5.28 0 8 0 C8 0.99 8 1.98 8 3 C6.35 2.67 4.7 2.34 3 2 C3 3.65 3 5.3 3 7 C4.65 6.67 6.3 6.34 8 6 C7.67 6.99 7.34 7.98 7 9 C5.68 8.67 4.36 8.34 3 8 C3 9.98 3 11.96 3 14 C4.98 13.67 6.96 13.34 9 13 C9 13.66 9 14.32 9 15 C6.03 15 3.06 15 0 15 C0 10.05 0 5.1 0 0 Z " fill="#ADDE74" transform="translate(316,257)"/>
<path d="M0 0 C0.66 0 1.32 0 2 0 C3.65 4.62 5.3 9.24 7 14 C6.01 14 5.02 14 4 14 C3.34 12.35 2.68 10.7 2 9 C1.01 9 0.02 9 -1 9 C-1.66 10.65 -2.32 12.3 -3 14 C-3.66 13.67 -4.32 13.34 -5 13 C-3.35 8.71 -1.7 4.42 0 0 Z " fill="#AADD6F" transform="translate(271,258)"/>
<path d="M0 0 C2.64 0 5.28 0 8 0 C7.67 0.99 7.34 1.98 7 3 C5.35 2.67 3.7 2.34 2 2 C2 3.65 2 5.3 2 7 C3.65 6.67 5.3 6.34 7 6 C6.67 6.99 6.34 7.98 6 9 C4.68 8.67 3.36 8.34 2 8 C2.33 10.31 2.66 12.62 3 15 C2.01 15 1.02 15 0 15 C0 10.05 0 5.1 0 0 Z " fill="#AEDE77" transform="translate(295,257)"/>
<path d="M0 0 C2.97 0 5.94 0 9 0 C8.67 0.99 8.34 1.98 8 3 C7.01 2.67 6.02 2.34 5 2 C5.33 6.29 5.66 10.58 6 15 C5.01 15 4.02 15 3 15 C3 10.71 3 6.42 3 2 C1.68 2.33 0.36 2.66 -1 3 C-0.67 2.01 -0.34 1.02 0 0 Z " fill="#AFDE78" transform="translate(279,257)"/>
<path d="M0 0 C0.33 0 0.66 0 1 0 C1.3689719 7.31110994 0.81552726 13.21256822 -2 20 C-2.99 20 -3.98 20 -5 20 C-5.33 19.34 -5.66 18.68 -6 18 C-5.29296875 16.15234375 -5.29296875 16.15234375 -4.1875 13.9375 C-2.04977844 9.38097239 -0.88727843 4.93840493 0 0 Z " fill="#747272" transform="translate(140,236)"/>
<path d="M0 0 C4.35176215 0.597459 7.52603237 2.18356452 11.3125 4.375 C12.38113281 4.98085937 13.44976562 5.58671875 14.55078125 6.2109375 C15.76314453 7.09652344 15.76314453 7.09652344 17 8 C17 8.99 17 9.98 17 11 C14.72565347 9.73513885 12.45561255 8.46345297 10.1875 7.1875 C9.54490234 6.83107422 8.90230469 6.47464844 8.24023438 6.10742188 C5.13461565 4.3534714 2.32540905 2.74035193 0 0 Z " fill="#71CB6E" transform="translate(351,201)"/>
<path d="M0 0 C3.24976804 -0.37140206 4.73393244 -0.16223632 7.5625 1.5625 C10.50045712 4.50045712 12.08956051 7.32063505 14 11 C13.34 11.66 12.68 12.32 12 13 C11.72027344 12.46890625 11.44054687 11.9378125 11.15234375 11.390625 C8.12650688 6.0589253 5.54680186 3.6102597 0 1 C0 0.67 0 0.34 0 0 Z " fill="#83D181" transform="translate(369,169)"/>
<path d="M0 0 C3.66060821 0.58536753 5.54535164 2.083239 8.25 4.5625 C8.95640625 5.20316406 9.6628125 5.84382812 10.390625 6.50390625 C10.92171875 6.99761719 11.4528125 7.49132812 12 8 C11.34 8.66 10.68 9.32 10 10 C8.33333333 8.66666667 6.66666667 7.33333333 5 6 C4.071875 5.29875 3.14375 4.5975 2.1875 3.875 C1.465625 3.25625 0.74375 2.6375 0 2 C0 1.34 0 0.68 0 0 Z " fill="#83D181" transform="translate(368,211)"/>
<path d="M0 0 C0.99 0.33 1.98 0.66 3 1 C3 5.62 3 10.24 3 15 C2.01 15 1.02 15 0 15 C0 10.05 0 5.1 0 0 Z " fill="#B8E288" transform="translate(351,257)"/>
<path d="M0 0 C0.33 0 0.66 0 1 0 C1.99 4.62 2.98 9.24 4 14 C3.01 14.33 2.02 14.66 1 15 C-0.00109515 11.68929162 -0.10356134 8.69915231 -0.0625 5.25 C-0.05347656 4.26515625 -0.04445312 3.2803125 -0.03515625 2.265625 C-0.02355469 1.51796875 -0.01195312 0.7703125 0 0 Z " fill="#7B7979" transform="translate(50,236)"/>
<path d="M0 0 C-0.625 1.875 -0.625 1.875 -2 4 C-5.125 5.25 -5.125 5.25 -8 6 C-8.66 5.34 -9.32 4.68 -10 4 C-3.375 0 -3.375 0 0 0 Z " fill="#70CA6D" transform="translate(423,221)"/>
<path d="M0 0 C1.86323318 0.25288812 3.71708432 0.57690153 5.5625 0.9375 C6.57441406 1.13214844 7.58632813 1.32679688 8.62890625 1.52734375 C9.80259766 1.76130859 9.80259766 1.76130859 11 2 C9 4 9 4 7.125 4.046875 C6.42375 3.94890625 5.7225 3.8509375 5 3.75 C3.948125 3.61851562 3.948125 3.61851562 2.875 3.484375 C1 3 1 3 -1 1 C-0.67 0.67 -0.34 0.34 0 0 Z " fill="#84D181" transform="translate(389,187)"/>
<path d="M0 0 C0.66 0 1.32 0 2 0 C3.125 4.75 3.125 4.75 2 7 C0.68 6.67 -0.64 6.34 -2 6 C-1.34 4.02 -0.68 2.04 0 0 Z " fill="#C2E699" transform="translate(271,258)"/>
<path d="M0 0 C0.99 0.33 1.98 0.66 3 1 C1.35 2.98 -0.3 4.96 -2 7 C-2.99 6.67 -3.98 6.34 -5 6 C-3.86525052 2.59575156 -3.03188696 1.78346291 0 0 Z " fill="#7BCE78" transform="translate(353,195)"/>
<path d="M0 0 C0.80824219 0.19464844 1.61648438 0.38929688 2.44921875 0.58984375 C3.06410156 0.74582031 3.67898438 0.90179688 4.3125 1.0625 C4.3125 1.3925 4.3125 1.7225 4.3125 2.0625 C-4.25892857 2.34821429 -4.25892857 2.34821429 -7.6875 0.0625 C-4.39053895 -1.03648702 -3.28255097 -0.80874444 0 0 Z " fill="#91D68F" transform="translate(403.6875,216.9375)"/>
<path d="M0 0 C1.32 0 2.64 0 4 0 C3.67 1.65 3.34 3.3 3 5 C2.01 5 1.02 5 0 5 C0 3.35 0 1.7 0 0 Z " fill="#FBFDF9" transform="translate(307,259)"/>
<path d="M0 0 C0.625 1.875 0.625 1.875 1 4 C0.34 4.66 -0.32 5.32 -1 6 C-2.66666667 6 -4.33333333 6 -6 6 C-4 4 -2 2 0 0 Z " fill="#5A5758" transform="translate(136,254)"/>
<path d="" fill="#C3E9C1" transform="translate(0,0)"/>
<path d="" fill="#DBF2DA" transform="translate(0,0)"/>
</svg>
